<svg width="85" height="60" viewBox="0 0 85 60" fill="none" xmlns="http://www.w3.org/2000/svg">
<path d="M54.9556 29.5911C54.9556 32.9546 53.6195 36.1802 51.2412 38.5586C48.8629 40.9369 45.6372 42.273 42.2737 42.273C38.9103 42.273 35.6846 40.9369 33.3062 38.5586C30.9279 36.1802 29.5918 32.9546 29.5918 29.5911C29.5918 26.2276 30.9279 23.0019 33.3062 20.6236C35.6846 18.2453 38.9103 16.9092 42.2737 16.9092C45.6372 16.9092 48.8629 18.2453 51.2412 20.6236C53.6195 23.0019 54.9556 26.2276 54.9556 29.5911V29.5911Z" fill="white"/>
<path d="M84.0958 27.7015C74.9732 9.45226 58.7742 0 42.2708 0C25.7716 0 9.56836 9.45226 0.445837 27.7015C0.152637 28.2883 0 28.9352 0 29.5911C0 30.2471 0.152637 30.894 0.445837 31.4807C9.56836 49.73 25.7674 59.1823 42.2708 59.1823C58.77 59.1823 74.9732 49.73 84.0958 31.4807C84.389 30.894 84.5416 30.2471 84.5416 29.5911C84.5416 28.9352 84.389 28.2883 84.0958 27.7015V27.7015ZM42.2708 50.7277C29.7199 50.7277 16.8985 43.8794 9.0019 29.5911C16.8985 15.3028 29.7157 8.45461 42.2708 8.45461C54.8217 8.45461 67.6431 15.3028 75.5397 29.5911C67.6431 43.8794 54.8217 50.7277 42.2708 50.7277Z" fill="white"/>
</svg>
