<svg width="30" height="26" viewBox="0 0 30 26" fill="none" xmlns="http://www.w3.org/2000/svg">
<path d="M4.41468 0.406027C4.14189 0.14255 3.77652 -0.00324087 3.39727 5.46785e-05C3.01802 0.00335023 2.65524 0.155469 2.38707 0.423647C2.11889 0.691824 1.96677 1.0546 1.96348 1.43385C1.96018 1.8131 2.10597 2.17847 2.36945 2.45126L5.87557 5.95738C3.80719 7.51373 2.00206 9.65154 0.652548 12.3535C0.552226 12.5542 0.5 12.7756 0.5 13C0.5 13.2244 0.552226 13.4458 0.652548 13.6465C3.77392 19.8907 9.3166 23.1249 14.9634 23.1249C17.2126 23.1249 19.4473 22.6115 21.5157 21.599L25.5122 25.594C25.785 25.8575 26.1503 26.0032 26.5296 25.9999C26.9088 25.9967 27.2716 25.8445 27.5398 25.5764C27.8079 25.3082 27.9601 24.9454 27.9634 24.5661C27.9667 24.1869 27.8209 23.8215 27.5574 23.5487L4.41468 0.406027ZM19.3229 19.4047C17.9054 19.9587 16.4301 20.2321 14.9634 20.2321C10.669 20.2321 6.28201 17.8889 3.5801 13C4.76182 10.8607 6.26755 9.21038 7.94539 8.02866L11.0465 11.1298C10.659 11.9397 10.5323 12.8499 10.6838 13.7349C10.8353 14.6199 11.2576 15.4361 11.8925 16.0709C12.5274 16.7058 13.3436 17.1281 14.2285 17.2796C15.1135 17.4312 16.0237 17.3044 16.8336 16.9169L19.3215 19.4047H19.3229ZM24.4404 15.7424C25.139 14.9382 25.7797 14.0255 26.3467 13C23.6448 8.1111 19.2593 5.7679 14.9634 5.7679C14.8014 5.7679 14.6394 5.7708 14.4774 5.77803L11.8956 3.19762C12.9041 2.98335 13.9323 2.87524 14.9634 2.87506C20.6088 2.87506 26.1529 6.10926 29.2743 12.3535C29.3746 12.5542 29.4268 12.7756 29.4268 13C29.4268 13.2244 29.3746 13.4458 29.2743 13.6465C28.5329 15.1446 27.5967 16.538 26.4899 17.7905L24.4404 15.7424Z" fill="white"/>
</svg>
