<svg width="35" height="38" viewBox="0 0 35 38" fill="none" xmlns="http://www.w3.org/2000/svg">
<path fill-rule="evenodd" clip-rule="evenodd" d="M0 6.10193C0 1.36805 4.12492 -1.55941 7.36696 0.8776L24.5282 13.7755C27.6778 16.1424 27.6778 21.8572 24.5282 24.2241L7.36939 37.122C4.12735 39.559 0.00243197 36.6346 0.00243197 31.8976V6.10193H0ZM22.0255 18.9998L4.86429 6.10193V31.8976L22.0255 18.9998ZM31.6179 0.722241C32.2629 0.722241 32.8815 1.04319 33.3376 1.61447C33.7938 2.18575 34.05 2.96058 34.05 3.7685V34.2311C34.05 35.039 33.7938 35.8138 33.3376 36.3851C32.8815 36.9564 32.2629 37.2773 31.6179 37.2773C30.9728 37.2773 30.3542 36.9564 29.8981 36.3851C29.442 35.8138 29.1857 35.039 29.1857 34.2311V3.7685C29.1857 2.96058 29.442 2.18575 29.8981 1.61447C30.3542 1.04319 30.9728 0.722241 31.6179 0.722241Z" fill="white"/>
</svg>
