<svg width="83" height="124" viewBox="0 0 83 124" fill="none" xmlns="http://www.w3.org/2000/svg">
<path d="M10.2652 0C12.9877 0 15.5986 1.08151 17.5237 3.0066C19.4488 4.93169 20.5303 7.54268 20.5303 10.2652V112.917C20.5303 115.639 19.4488 118.25 17.5237 120.175C15.5986 122.101 12.9877 123.182 10.2652 123.182C7.54268 123.182 4.93169 122.101 3.0066 120.175C1.08151 118.25 0 115.639 0 112.917V10.2652C0 7.54268 1.08151 4.93169 3.0066 3.0066C4.93169 1.08151 7.54268 0 10.2652 0V0ZM71.8562 0C74.5787 0 77.1897 1.08151 79.1147 3.0066C81.0398 4.93169 82.1213 7.54268 82.1213 10.2652V112.917C82.1213 115.639 81.0398 118.25 79.1147 120.175C77.1897 122.101 74.5787 123.182 71.8562 123.182C69.1337 123.182 66.5227 122.101 64.5976 120.175C62.6725 118.25 61.591 115.639 61.591 112.917V10.2652C61.591 7.54268 62.6725 4.93169 64.5976 3.0066C66.5227 1.08151 69.1337 0 71.8562 0V0Z" fill="white"/>
</svg>
