<svg width="253" height="220" viewBox="0 0 253 220" fill="none" xmlns="http://www.w3.org/2000/svg">
<path d="M137.912 81.4641C136.122 81.3122 133.809 78.33 132.465 77.3031C131.044 76.2175 129.708 74.8608 128.69 73.5385C126.634 70.8689 123.279 68.8151 121.312 66.1852C119.55 63.83 118.071 61.2089 117.133 58.6999C116.207 56.2248 114.049 53.755 114.049 50.9504C114.049 44.1408 114.126 36.8947 118.458 30.9381C120.907 27.5706 124.192 25.0524 127.018 21.9337C128.427 20.3784 130.199 19.2816 131.687 17.8608C132.655 16.9359 133.25 15.2805 134.54 14.4924C138.019 12.3663 140.631 10.0027 144.915 8.54817C149.133 7.11633 153.519 6.30998 157.74 5.0697C160.473 4.26684 163.55 4.29111 166.185 3.3965C168.186 2.71698 169.93 2.20766 172.151 2.20766C177.162 2.20766 183.559 1.32527 187.973 3.19836C191.73 4.79276 195.996 5.52119 199.386 7.53545C202.345 9.29356 207.34 10.4066 209.386 12.9073C210.25 13.963 211.702 15.381 212.874 16.2757C214.423 17.4592 215.185 19.3098 216.534 20.6348C217.764 21.8431 218.647 23.1693 219.992 24.3114C220.52 24.7596 223.345 26.9583 221.433 25.9846" stroke="white" stroke-width="3" stroke-linecap="round"/>
<path d="M222.472 26.3808C220.102 26.3808 208.906 26.1309 208.466 29.1548C208.233 30.7542 206.909 32.3004 206.909 33.9102C206.909 35.9175 206.391 37.9777 206.391 40.0526C206.391 42.0047 207.36 43.593 208.206 45.4024C208.969 47.0328 209.327 49.803 210.944 51.0384C214.158 53.4935 217.621 54.4664 221.982 55.5076C228.299 57.0153 232.621 57.0674 237.488 53.35C240.584 50.9846 240.128 48.0091 241.378 45.0061C242.696 41.842 242.887 39.1364 242.07 35.8916C241.482 33.5544 239.316 28.6858 236.479 27.4816C234.512 26.6467 232.506 25.8397 230.513 24.9938C229.407 24.5245 226.071 24.3994 224.807 24.3994C223.568 24.3994 221.355 25.8622 220.916 25.192" stroke="white" stroke-width="3" stroke-linecap="round"/>
<path d="M227.139 56.8945C223.569 59.6217 220.289 64.7355 218.32 68.2987C216.027 72.4476 212.8 75.6474 208.06 78.2938C205.88 79.5107 201.953 81.9867 199.126 82.2566C198.285 82.3369 192.9 84.6125 192.9 84.238" stroke="white" stroke-width="3" stroke-linecap="round"/>
<path d="M120.979 80.491C126.17 80.491 131.336 80.2656 136.547 80.2656C137.614 80.2656 138.588 80.4604 139.628 80.491C140.772 80.5246 141.509 81.1734 142.512 81.3923C143.036 81.5066 144.014 82.2604 144.282 82.6191C144.647 83.1073 145.544 83.195 144.282 83.195" stroke="white" stroke-width="3" stroke-linecap="round"/>
<path d="M148.707 83.4205C151.884 83.1778 154.578 80.9151 157.72 80.4787C160.418 80.104 163.361 79.5898 166.111 79.5898C170.818 79.5898 175.645 79.8152 180.27 79.8152" stroke="white" stroke-width="3" stroke-linecap="round"/>
<path d="M189.708 80.9416C188.48 80.9416 187.247 80.9125 186.021 80.9541C183.982 81.0234 182.248 81.7684 180.285 82.0683C178.275 82.3755 176.396 83.1131 174.386 83.4203C170.39 84.0307 166.439 85.4483 162.275 85.4483C159.73 85.4483 157.189 85.7833 154.605 85.6737C153.951 85.6459 153.056 85.1038 152.541 84.8224C151.636 84.3291 150.577 84.2728 149.656 83.871C148.284 83.272 146.707 83.195 145.166 83.195C142.561 83.195 141.911 84.2149 140.004 85.3482C139.373 85.7227 138.671 86.3992 137.923 86.5625C136.345 86.9067 134.326 86.2054 132.924 85.7863C127.471 84.1563 122.358 80.2656 116.258 80.2656" stroke="white" stroke-width="3" stroke-linecap="round"/>
<path d="M137.793 88.3779C137.793 92.9622 139.304 97.395 140.284 101.885C140.886 104.645 142.513 107.661 142.513 110.461C142.513 111.78 143.103 113.077 143.103 114.404C143.103 116.134 143.162 118.104 143.545 119.8C144.022 121.914 143.988 124.087 143.988 126.234C143.988 128.492 150.04 128.859 152.247 129.113C153.347 129.24 154.525 129.163 155.639 129.163C156.907 129.163 156.672 128.777 156.672 127.912C156.672 125.281 156.316 122.41 155.934 119.787C155.371 115.911 154.94 111.968 154.607 108.082C154.211 103.475 154.017 98.904 154.017 94.2867C154.017 92.7339 153.722 91.2349 153.722 89.6798C153.722 89.1568 154.042 87.7114 153.427 87.4766" stroke="white" stroke-width="3" stroke-linecap="round"/>
<path d="M158.146 128.488C161.16 128.488 164.068 128.373 166.996 127.862C168.023 127.682 171.119 127.358 169.356 126.685" stroke="white" stroke-width="3" stroke-linecap="round"/>
<path d="M143.104 127.812C139.936 127.812 136.768 127.812 133.6 127.812C132.46 127.812 131.183 127.933 130.06 127.761C129.226 127.634 128.471 127.264 127.634 127.148C126.218 126.951 124.677 126.575 123.357 126.122C122.588 125.857 121.17 125.182 120.391 125.108C119.522 125.025 119.211 119.041 119.211 118.36C119.211 116.829 118.916 115.373 118.916 113.841" stroke="white" stroke-width="3" stroke-linecap="round"/>
<path d="M118.914 113.841C116.632 113.841 114.86 112.722 113.161 111.712C110.8 110.309 111.244 108.254 111.244 106.067C111.244 104.005 111.244 101.944 111.244 99.8823C111.244 98.2218 111.719 96.9169 112.064 95.3131C112.708 92.3096 115.252 90.8564 119.209 90.8564C120.748 90.8564 121.355 91.0185 121.929 92.1584C122.374 93.0417 123.377 93.7189 123.633 94.6997C123.867 95.5936 124.354 96.3801 124.813 97.2159C125.695 98.8197 126.14 100.609 126.649 102.298C127.306 104.48 127.468 106.545 127.468 108.771C127.468 110.949 127.059 113.207 124.813 114.742C123.613 115.562 119.511 115.66 118.914 114.291" stroke="white" stroke-width="3" stroke-linecap="round"/>
<path d="M116.26 90.6311C116.26 88.0283 117.052 84.5597 115.965 82.0684" stroke="white" stroke-width="3" stroke-linecap="round"/>
<path d="M206.524 82.7446C206.524 83.8708 206.632 84.8516 206.098 85.8993C205.493 87.0888 204.4 88.1196 203.509 89.2293C202.715 90.2173 201.674 91.1195 200.297 91.6453C197.7 92.6373 195.205 93.9833 192.824 95.2507C189.59 96.9724 185.22 97.3125 181.451 97.9422C179.672 98.2394 177.925 98.624 176.141 98.9186C174.855 99.1312 172.592 98.5688 171.487 99.2441C170.24 100.006 168.774 100.866 167.652 101.723C166.425 102.661 164.461 103.948 163.752 105.165C162.161 107.899 162.126 111.61 165.751 113.39C167.314 114.157 167.554 115.042 168.701 115.919C169.381 116.439 170.594 116.702 171.422 117.108C172.602 117.688 173.413 117.442 174.666 117.784C176.343 118.241 177.787 118.347 179.665 118.347C182.393 118.347 185.602 118.732 188.236 118.297C191.158 117.815 194.124 117.437 197.085 117.046C200.789 116.556 203.184 115.237 206.082 113.515C207.631 112.595 210.092 111.37 210.949 109.897C211.615 108.754 212.442 107.968 213.604 107.081" stroke="white" stroke-width="3" stroke-linecap="round"/>
<path d="M212.424 76.4355C212.667 78.29 214.553 80.3967 215.44 82.119C216.825 84.8107 218.412 87.3986 219.963 90.0307C221.785 93.1247 224.267 96.0102 226.436 98.9565C228.937 102.353 230.208 106.472 231.303 110.236C232.141 113.117 233.317 115.987 233.893 118.899C234.607 122.514 233.958 126.565 233.958 130.215C233.958 133.557 234.067 136.753 233.434 140.03C232.727 143.691 231.04 146.491 227.6 149.118C226.57 149.905 225.881 151.27 224.453 151.647C222.673 152.118 220.688 152.918 219.029 153.6C217.838 154.09 216.332 153.798 215.079 154.063C214.25 154.239 213.275 154.342 212.424 154.414C210.761 154.555 211.977 154.342 211.081 153.951C210.385 153.647 209.727 153.747 208.95 153.725C205.921 153.64 202.249 153.538 199.445 152.824" stroke="white" stroke-width="3" stroke-linecap="round"/>
<path d="M203.868 151.923C201.506 151.923 199.119 151.722 196.92 152.486C196.122 152.763 194.999 153.201 194.134 153.275C192.41 153.421 190.097 154.93 188.66 155.628C186.972 156.449 184.422 156.429 182.482 156.429C180.283 156.429 179.428 156.486 177.975 155.253C176.48 153.984 176.36 151.626 175.484 150.12C174.655 148.694 172.305 147.333 172.305 145.726C172.305 143.596 170.83 141.398 170.83 139.179C170.83 136.481 171.012 133.818 171.125 131.142C171.262 127.898 173.012 125.37 174.96 122.629C176.253 120.809 179.908 120.376 182.334 120.376C184.343 120.376 186.882 120.177 188.676 120.939C191.324 122.063 191.994 123.316 193.019 125.508C193.973 127.549 193.839 130.181 193.839 132.369C193.839 135.498 194.472 138.323 195.461 141.344C196.172 143.516 197.248 145.903 197.657 148.092C197.966 149.746 197.968 151.368 197.968 153.049" stroke="white" stroke-width="3" stroke-linecap="round"/>
<path d="M109.475 112.264C110.592 112.264 106.995 112.093 106.164 112.664C104.899 113.534 103.32 114.194 102.69 115.518C101.911 117.155 100.599 118.646 99.9699 120.376C99.1428 122.65 100.114 125.116 99.298 127.361C98.3963 129.841 99.7464 132.948 100.625 135.298C101.633 137.991 104.491 140.002 106.099 142.458C106.92 143.714 107.06 145.495 108.36 146.564C109.341 147.371 110.171 148.974 111.687 149.231C123.329 151.207 135.623 150.12 147.527 150.12C152.449 150.12 157.275 150.57 162.211 150.57C163.357 150.57 168.915 151.019 169.356 150.345" stroke="white" stroke-width="3" stroke-linecap="round"/>
<path d="M119.209 149.894C119.209 144.654 120.094 139.499 120.094 134.246C120.094 130.082 118.48 126.495 116.259 122.679C115.383 121.172 113.983 119.826 113.015 118.347C112.486 117.539 112.044 116.447 111.097 115.869C109.819 115.087 108.998 113.787 108.295 112.714" stroke="white" stroke-width="3" stroke-linecap="round"/>
<path d="M216.258 73.0552C222.138 73.0552 228.589 73.0627 233.727 75.5339C235.279 76.2804 236.545 77.2191 238.021 78.0125C239.702 78.916 240.163 81.1682 240.741 82.5192C241.894 85.2135 242.309 88.0985 243.462 90.8065C244.571 93.4139 245.477 95.9618 246.346 98.6181C247.925 103.444 249.519 108.429 249.902 113.403C250.118 116.211 251.585 119.661 250.754 122.516C250.46 123.528 249.893 124.518 249.591 125.558C249.218 126.841 249.069 127.986 247.985 129.051C247.188 129.833 246.604 130.446 245.592 131.079C244.474 131.778 242.936 132.178 241.774 132.869C240.277 133.758 237.663 135.022 235.727 135.022" stroke="white" stroke-width="3" stroke-linecap="round"/>
<path d="M235.725 77.1113C233.731 77.1113 231.527 76.9496 229.596 77.3867C228.982 77.5257 227.257 77.7611 226.876 78.1253C225.882 79.0742 223.551 80.1841 222.156 80.7166" stroke="white" stroke-width="3" stroke-linecap="round"/>
<path d="M131.992 18.5654C135.132 18.5654 138.382 18.7121 141.276 17.6067C143.682 16.6878 146.021 15.6673 148.376 14.6781C151.773 13.2508 156.82 12.8921 160.616 12.8921C164.977 12.8921 169.338 12.8921 173.699 12.8921C177.705 12.8921 180.84 14.2273 184.289 15.5449C186.228 16.2853 188.49 17.2831 190.031 18.4603C192.337 20.2215 195.161 21.4335 197.441 23.1749C199.09 24.435 200.304 25.9984 201.928 27.3117C202.675 27.9159 203.466 28.6938 204.094 29.3866C204.462 29.7929 205.525 30.9313 205.951 31.0939" stroke="white" stroke-width="3" stroke-linecap="round"/>
<path d="M212.14 54.4966C212.14 58.1187 210.46 62.2714 208.495 65.6068C206.804 68.478 205.139 71.0969 202.616 73.6439C199.628 76.6601 195.783 80.2628 190.479 80.2628" stroke="white" stroke-width="3" stroke-linecap="round"/>
<path d="M143.259 43.9404C145.481 43.736 142 40.1685 142 43.2455C142 45.3465 143.259 45.7247 143.259 43.4771" stroke="white" stroke-width="3" stroke-linecap="round"/>
<path d="M179.03 42.7172C175.776 42.7172 176.853 46.6104 179.323 45.9174C181.506 45.3049 177.712 39.389 177.712 43.3645" stroke="white" stroke-width="3" stroke-linecap="round"/>
<path d="M13.4989 182.15C13.4989 172.293 13.4989 162.436 13.4989 152.579C13.4989 141.356 11.8142 128.862 14.6363 117.977C17.8395 105.621 20.5648 90.9295 34.7589 86.874C39.4285 85.5399 43.1507 83.5121 48.101 82.8933C52.3865 82.3576 57.0492 81.5278 61.3557 81.3622C66.3483 81.1702 72.9685 81.1551 77.2787 79" stroke="white" stroke-width="3" stroke-linecap="round"/>
<path d="M77.4957 76.2319C74.0898 75.8913 68.8734 71.5148 66.647 68.9703C62.9927 64.794 75.7943 75.2867 80.6453 77.9817C86.6105 81.2957 77.4509 81.6669 76.0959 84.106C74.7863 86.4632 73.1116 88.795 72.1588 91.3676C71.6861 92.644 70.5793 96.2256 69.6216 96.7045" stroke="white" stroke-width="3" stroke-linecap="round"/>
<path d="M3.864 219.264H1.824C1.488 219.264 1.32 219.104 1.32 218.784V204.264C1.32 203.928 1.488 203.76 1.824 203.76H3.864C4.2 203.76 4.368 203.928 4.368 204.264V205.056H4.464C4.64 204.624 4.952 204.304 5.4 204.096C5.848 203.872 6.32 203.76 6.816 203.76H7.8C9.032 203.76 9.96 204.096 10.584 204.768C11.224 205.44 11.544 206.408 11.544 207.672V212.088C11.544 213.352 11.224 214.32 10.584 214.992C9.96 215.664 9.032 216 7.8 216H6.816C6.32 216 5.848 215.896 5.4 215.688C4.952 215.464 4.64 215.136 4.464 214.704H4.368V218.784C4.368 219.104 4.2 219.264 3.864 219.264ZM6.024 213.36H7.08C7.592 213.36 7.952 213.256 8.16 213.048C8.384 212.824 8.496 212.456 8.496 211.944V207.816C8.496 207.304 8.384 206.944 8.16 206.736C7.952 206.512 7.592 206.4 7.08 206.4H6.024C4.92 206.4 4.368 207.008 4.368 208.224V211.536C4.368 212.752 4.92 213.36 6.024 213.36ZM19.8088 216H17.6728C16.4088 216 15.4328 215.664 14.7448 214.992C14.0568 214.32 13.7128 213.352 13.7128 212.088V207.672C13.7128 206.408 14.0568 205.44 14.7448 204.768C15.4328 204.096 16.4088 203.76 17.6728 203.76H19.8088C21.0568 203.76 22.0248 204.104 22.7128 204.792C23.4168 205.464 23.7688 206.424 23.7688 207.672V212.088C23.7688 213.336 23.4168 214.304 22.7128 214.992C22.0248 215.664 21.0568 216 19.8088 216ZM18.1288 213.384H19.3528C19.8648 213.384 20.2248 213.28 20.4328 213.072C20.6568 212.864 20.7688 212.504 20.7688 211.992V207.768C20.7688 207.256 20.6568 206.896 20.4328 206.688C20.2248 206.48 19.8648 206.376 19.3528 206.376H18.1288C17.6168 206.376 17.2568 206.48 17.0488 206.688C16.8408 206.896 16.7368 207.256 16.7368 207.768V211.992C16.7368 212.504 16.8408 212.864 17.0488 213.072C17.2568 213.28 17.6168 213.384 18.1288 213.384ZM30.8678 209.568H26.3078C25.9718 209.568 25.8038 209.4 25.8038 209.064V207.648C25.8038 207.296 25.9718 207.12 26.3078 207.12H30.8678C31.2038 207.12 31.3718 207.296 31.3718 207.648V209.064C31.3718 209.4 31.2038 209.568 30.8678 209.568ZM36.1843 216H34.1443C33.8083 216 33.6403 215.832 33.6403 215.496V204.264C33.6403 203.928 33.8083 203.76 34.1443 203.76H36.1843C36.5203 203.76 36.6883 203.928 36.6883 204.264V205.056H36.7843C36.9763 204.672 37.2963 204.36 37.7443 204.12C38.2083 203.88 38.7363 203.76 39.3283 203.76H40.0003C41.3923 203.76 42.3923 204.272 43.0003 205.296C43.5443 204.272 44.4803 203.76 45.8083 203.76H46.5043C47.7363 203.76 48.6643 204.096 49.2883 204.768C49.9283 205.44 50.2483 206.408 50.2483 207.672V215.496C50.2483 215.832 50.0803 216 49.7443 216H47.7043C47.3683 216 47.2003 215.832 47.2003 215.496V207.816C47.2003 207.304 47.0963 206.944 46.8883 206.736C46.6803 206.512 46.3203 206.4 45.8083 206.4H45.2083C44.1043 206.4 43.5523 207.016 43.5523 208.248V215.496C43.5523 215.832 43.3763 216 43.0243 216H41.0083C40.6723 216 40.5043 215.832 40.5043 215.496V207.816C40.5043 207.304 40.3923 206.944 40.1683 206.736C39.9603 206.512 39.6003 206.4 39.0883 206.4H38.3443C37.2403 206.4 36.6883 207.008 36.6883 208.224V215.496C36.6883 215.832 36.5203 216 36.1843 216ZM58.2368 216H56.5088C55.2448 216 54.2688 215.664 53.5808 214.992C52.8928 214.32 52.5488 213.352 52.5488 212.088V207.672C52.5488 206.408 52.8928 205.44 53.5808 204.768C54.2688 204.096 55.2448 203.76 56.5088 203.76H58.0448C59.5168 203.76 60.5968 204.24 61.2848 205.2C61.8128 204.24 62.8128 203.76 64.2848 203.76H65.4128C66.6608 203.76 67.6288 204.104 68.3168 204.792C69.0208 205.464 69.3728 206.424 69.3728 207.672V210.72C69.3728 211.056 69.1968 211.224 68.8448 211.224H62.8688C62.6928 211.224 62.6048 211.312 62.6048 211.488V211.944C62.6048 212.456 62.7088 212.824 62.9168 213.048C63.1248 213.256 63.4848 213.36 63.9968 213.36H68.8208C69.1408 213.36 69.3008 213.528 69.3008 213.864V215.52C69.3008 215.696 69.2688 215.824 69.2048 215.904C69.1408 215.968 69.0128 216 68.8208 216H64.0928C63.2128 216 62.5408 215.88 62.0768 215.64C61.6128 215.4 61.2048 215 60.8528 214.44C60.5168 215.48 59.6448 216 58.2368 216ZM62.8688 209.184H66.0368C66.2288 209.184 66.3248 209.096 66.3248 208.92V207.816C66.3248 207.304 66.2128 206.944 65.9888 206.736C65.7808 206.512 65.4288 206.4 64.9328 206.4H63.9968C63.4848 206.4 63.1248 206.512 62.9168 206.736C62.7088 206.944 62.6048 207.304 62.6048 207.816V208.92C62.6048 209.096 62.6928 209.184 62.8688 209.184ZM56.9888 213.36H58.1408C58.6528 213.36 59.0128 213.256 59.2208 213.048C59.4288 212.824 59.5328 212.456 59.5328 211.944V207.816C59.5328 207.304 59.4288 206.944 59.2208 206.736C59.0128 206.512 58.6528 206.4 58.1408 206.4H56.9888C56.4768 206.4 56.1168 206.512 55.9088 206.736C55.7008 206.944 55.5968 207.304 55.5968 207.816V211.944C55.5968 212.456 55.7008 212.824 55.9088 213.048C56.1168 213.256 56.4768 213.36 56.9888 213.36ZM76.0474 213.36H77.4154C77.9274 213.36 78.2874 213.256 78.4954 213.048C78.7194 212.824 78.8314 212.456 78.8314 211.944V210.288C78.8314 209.776 78.7194 209.416 78.4954 209.208C78.2874 208.984 77.9274 208.872 77.4154 208.872H74.6554V211.944C74.6554 212.456 74.7594 212.824 74.9674 213.048C75.1754 213.256 75.5354 213.36 76.0474 213.36ZM77.9194 216H75.5674C74.3034 216 73.3274 215.664 72.6394 214.992C71.9514 214.32 71.6074 213.352 71.6074 212.088V204.48C71.6074 203.216 71.9514 202.248 72.6394 201.576C73.3274 200.904 74.3034 200.568 75.5674 200.568H80.4634C80.7994 200.568 80.9674 200.736 80.9674 201.072V202.728C80.9674 203.048 80.7994 203.208 80.4634 203.208H76.0474C75.5514 203.208 75.1914 203.32 74.9674 203.544C74.7594 203.752 74.6554 204.112 74.6554 204.624V206.232H77.9194C79.1834 206.232 80.1594 206.568 80.8474 207.24C81.5354 207.912 81.8794 208.88 81.8794 210.144V212.088C81.8794 213.352 81.5354 214.32 80.8474 214.992C80.1594 215.664 79.1834 216 77.9194 216ZM90.6008 210.552V203.136L86.7128 210.552H90.6008ZM92.9768 216H91.1048C90.7688 216 90.6008 215.832 90.6008 215.496V213.192H84.6488C84.3768 213.192 84.1608 213.112 84.0008 212.952C83.8408 212.792 83.7607 212.576 83.7607 212.304V211.368C83.7607 210.888 83.8408 210.496 84.0008 210.192L88.7768 201.312C88.9368 201.024 89.0808 200.832 89.2088 200.736C89.3528 200.624 89.5608 200.568 89.8328 200.568H92.5448C92.8168 200.568 93.0328 200.648 93.1928 200.808C93.3688 200.968 93.4568 201.184 93.4568 201.456V210.552H95.1848C95.5048 210.552 95.6648 210.712 95.6648 211.032V212.64C95.6648 213.008 95.5048 213.192 95.1848 213.192H93.4568V215.496C93.4568 215.688 93.4168 215.824 93.3368 215.904C93.2728 215.968 93.1528 216 92.9768 216Z" fill="white"/>
</svg>
