<svg width="27" height="26" viewBox="0 0 27 26" fill="none" xmlns="http://www.w3.org/2000/svg">
<path d="M13.5003 2.60428C13.1557 2.60428 12.8251 2.74119 12.5814 2.9849C12.3377 3.2286 12.2008 3.55914 12.2008 3.90379C12.2008 6.10255 9.54203 7.20453 7.98652 5.64902C7.86665 5.52491 7.72326 5.42591 7.56471 5.3578C7.40617 5.2897 7.23564 5.25385 7.0631 5.25235C6.89055 5.25085 6.71943 5.28373 6.55973 5.34907C6.40002 5.41441 6.25493 5.5109 6.13292 5.63292C6.0109 5.75493 5.91441 5.90002 5.84907 6.05973C5.78373 6.21943 5.75085 6.39055 5.75235 6.5631C5.75385 6.73564 5.7897 6.90616 5.8578 7.06471C5.92591 7.22325 6.02491 7.36665 6.14902 7.48652C7.70453 9.04203 6.60385 11.7008 4.40379 11.7008C4.05914 11.7008 3.7286 11.8377 3.4849 12.0814C3.24119 12.3251 3.10428 12.6557 3.10428 13.0003C3.10428 13.345 3.24119 13.6755 3.4849 13.9192C3.7286 14.1629 4.05914 14.2998 4.40379 14.2998C6.60255 14.2998 7.70453 16.9586 6.14902 18.5141C5.91231 18.7592 5.78132 19.0875 5.78429 19.4282C5.78725 19.7689 5.92391 20.0949 6.16485 20.3358C6.40579 20.5767 6.73172 20.7134 7.07245 20.7164C7.41318 20.7193 7.74143 20.5883 7.98652 20.3516C9.54203 18.7961 12.2008 19.8968 12.2008 22.0969C12.2008 22.4415 12.3377 22.772 12.5814 23.0157C12.8251 23.2595 13.1557 23.3964 13.5003 23.3964C13.845 23.3964 14.1755 23.2595 14.4192 23.0157C14.6629 22.772 14.7998 22.4415 14.7998 22.0969C14.7998 19.8981 17.4586 18.7961 19.0141 20.3516C19.134 20.4757 19.2774 20.5747 19.4359 20.6428C19.5945 20.711 19.765 20.7468 19.9376 20.7483C20.1101 20.7498 20.2812 20.7169 20.4409 20.6516C20.6006 20.5862 20.7457 20.4897 20.8677 20.3677C20.9897 20.2457 21.0862 20.1006 21.1516 19.9409C21.2169 19.7812 21.2498 19.6101 21.2483 19.4375C21.2468 19.265 21.211 19.0945 21.1428 18.9359C21.0747 18.7774 20.9757 18.634 20.8516 18.5141C19.2961 16.9586 20.3968 14.2998 22.5969 14.2998C22.9415 14.2998 23.272 14.1629 23.5158 13.9192C23.7595 13.6755 23.8964 13.345 23.8964 13.0003C23.8964 12.6557 23.7595 12.3251 23.5158 12.0814C23.272 11.8377 22.9415 11.7008 22.5969 11.7008C20.3981 11.7008 19.2961 9.04203 20.8516 7.48652C21.0883 7.24143 21.2193 6.91318 21.2164 6.57245C21.2134 6.23172 21.0767 5.90579 20.8358 5.66485C20.5949 5.42391 20.2689 5.28725 19.9282 5.28429C19.5875 5.28132 19.2592 5.41231 19.0141 5.64902C17.4586 7.20453 14.7998 6.10385 14.7998 3.90379C14.7998 3.55914 14.6629 3.2286 14.4192 2.9849C14.1755 2.74119 13.845 2.60428 13.5003 2.60428ZM9.61221 3.614C9.68407 2.63192 10.1249 1.71343 10.8462 1.04303C11.5674 0.37263 12.5156 0 13.5003 0C14.485 0 15.4332 0.37263 16.1545 1.04303C16.8757 1.71343 17.3166 2.63192 17.3884 3.614C18.1341 2.97358 19.0942 2.63847 20.0764 2.67577C21.0586 2.71306 21.9905 3.12001 22.6855 3.81513C23.3804 4.51025 23.7872 5.44223 23.8242 6.42447C23.8613 7.4067 23.5259 8.36669 22.8854 9.1122C23.8674 9.1839 24.786 9.62459 25.4565 10.3457C26.127 11.0669 26.4998 12.015 26.5 12.9997C26.5002 13.9844 26.1277 14.9327 25.4574 15.6541C24.7871 16.3754 23.8687 16.8164 22.8867 16.8884C23.5271 17.6341 23.8622 18.5942 23.8249 19.5764C23.7876 20.5586 23.3806 21.4905 22.6855 22.1855C21.9904 22.8804 21.0584 23.2872 20.0762 23.3242C19.0939 23.3613 18.134 23.0259 17.3884 22.3853C17.3166 23.3674 16.8757 24.2859 16.1545 24.9563C15.4332 25.6267 14.485 25.9993 13.5003 25.9993C12.5156 25.9993 11.5674 25.6267 10.8462 24.9563C10.1249 24.2859 9.68407 23.3674 9.61221 22.3853C8.86669 23.0259 7.9067 23.3613 6.92447 23.3242C5.94224 23.2872 5.01025 22.8804 4.31513 22.1855C3.62001 21.4905 3.21306 20.5586 3.17577 19.5764C3.13847 18.5942 3.47358 17.6341 4.114 16.8884C3.13192 16.8166 2.21343 16.3757 1.54303 15.6545C0.87263 14.9332 0.5 13.985 0.5 13.0003C0.5 12.0156 0.87263 11.0674 1.54303 10.3462C2.21343 9.62491 3.13192 9.18407 4.114 9.1122C3.47163 8.36682 3.13488 7.40609 3.17133 6.42277C3.20777 5.43945 3.61471 4.50629 4.3105 3.8105C5.00629 3.11471 5.93945 2.70777 6.92277 2.67133C7.90609 2.63488 8.86682 2.97163 9.61221 3.614Z" fill="white"/>
<path d="M13.4994 10.4017C12.8101 10.4017 12.149 10.6755 11.6616 11.1629C11.1742 11.6503 10.9004 12.3114 10.9004 13.0007C10.9004 13.69 11.1742 14.351 11.6616 14.8384C12.149 15.3259 12.8101 15.5997 13.4994 15.5997C14.1887 15.5997 14.8497 15.3259 15.3372 14.8384C15.8246 14.351 16.0984 13.69 16.0984 13.0007C16.0984 12.3114 15.8246 11.6503 15.3372 11.1629C14.8497 10.6755 14.1887 10.4017 13.4994 10.4017ZM9.82438 9.32566C10.3039 8.8292 10.8775 8.4332 11.5116 8.16078C12.1458 7.88836 12.8279 7.74496 13.5181 7.73897C14.2083 7.73297 14.8928 7.86449 15.5316 8.12585C16.1704 8.38721 16.7508 8.77318 17.2388 9.26123C17.7269 9.74929 18.1128 10.3297 18.3742 10.9685C18.6356 11.6073 18.7671 12.2918 18.7611 12.982C18.7551 13.6721 18.6117 14.3542 18.3393 14.9884C18.0668 15.6226 17.6708 16.1962 17.1744 16.6757C16.194 17.6225 14.881 18.1465 13.5181 18.1346C12.1552 18.1228 10.8515 17.5761 9.8877 16.6123C8.92394 15.6486 8.37727 14.3449 8.36543 12.982C8.35359 11.6191 8.87752 10.306 9.82438 9.32566Z" fill="white"/>
</svg>
